<?xml version="1.0" standalone="no"?>
<!DOCTYPE svg PUBLIC "-//W3C//DTD SVG 20010904//EN"
 "http://www.w3.org/TR/2001/REC-SVG-20010904/DTD/svg10.dtd">
<svg version="1.0" xmlns="http://www.w3.org/2000/svg"
 width="200.000000pt" height="200.000000pt" viewBox="0 0 200.000000 200.000000"
 preserveAspectRatio="xMidYMid meet">

<g transform="translate(0.000000,200.000000) scale(0.100000,-0.100000)"
fill="#000000" stroke="none">
<path d="M586 1984 c-13 -12 -16 -38 -16 -120 l0 -104 -223 0 c-235 0 -247 -2
-247 -46 0 -38 36 -54 117 -54 l73 0 0 -703 c0 -816 -4 -774 89 -868 92 -92
82 -90 642 -87 l474 3 51 27 c29 15 68 46 87 69 69 80 67 54 67 846 l0 713 80
0 c67 0 83 3 100 20 23 23 26 50 8 68 -9 9 -75 12 -235 12 l-223 0 0 103 c0
88 -3 106 -18 120 -17 15 -60 17 -415 17 -346 0 -398 -2 -411 -16z m742 -151
l-3 -68 -325 0 -325 0 -3 68 -3 67 331 0 331 0 -3 -67z m272 -883 c0 -678 -1
-713 -19 -748 -23 -46 -46 -67 -94 -87 -55 -23 -919 -23 -975 0 -49 21 -81 52
-103 100 -17 38 -19 81 -19 743 l0 702 605 0 605 0 0 -710z"/>
<path d="M672 1358 c-9 -9 -12 -129 -12 -480 0 -452 1 -468 19 -478 28 -14 38
-13 61 10 19 19 20 33 20 468 0 389 -2 450 -16 470 -17 24 -53 29 -72 10z"/>
<path d="M962 1358 c-9 -9 -12 -128 -12 -474 0 -407 2 -464 16 -478 22 -22 50
-20 68 6 14 20 16 81 16 471 0 290 -4 455 -10 468 -12 22 -59 26 -78 7z"/>
<path d="M1256 1354 c-14 -14 -16 -70 -16 -467 0 -393 2 -455 16 -475 18 -26
46 -28 68 -6 14 14 16 71 16 478 0 346 -3 465 -12 474 -17 17 -54 15 -72 -4z"/>
</g>
</svg>
